<svg width="265" height="177" viewBox="0 0 265 177" fill="none" xmlns="http://www.w3.org/2000/svg">
<path fill-rule="evenodd" clip-rule="evenodd" d="M80.7219 176.132H220.171C228.539 176.127 236.734 173.739 243.794 169.246C250.854 164.754 256.489 158.342 260.037 150.764C263.586 143.185 264.902 134.752 263.832 126.452C262.761 118.152 259.348 110.329 253.993 103.898C257.596 99.9299 260.372 95.2833 262.159 90.23C263.946 85.1767 264.708 79.818 264.401 74.4668C264.094 69.1156 262.724 63.8793 260.37 59.0635C258.017 54.2478 254.728 49.9493 250.695 46.419C246.661 42.8887 241.965 40.1974 236.88 38.5023C231.796 36.8072 226.424 36.1423 221.079 36.5464C215.734 36.9504 210.524 38.4154 205.751 40.8558C200.979 43.2961 196.741 46.6629 193.285 50.7595C189.911 55.6058 187.394 65.5212 194.038 71.4122C200.563 77.2347 210.17 74.8886 215.273 70.1278C216.451 68.6766 217.978 67.549 219.712 66.8511C221.445 66.1532 223.328 65.908 225.183 66.1386C227.037 66.3692 228.802 67.068 230.312 68.1693C231.822 69.2705 233.027 70.7379 233.813 72.4333C234.599 74.1287 234.941 75.9963 234.806 77.8602C234.672 79.7242 234.065 81.5232 233.043 83.0878C232.021 84.6524 230.617 85.9311 228.964 86.8036C227.312 87.676 225.464 88.1135 223.596 88.0748L223.63 88.1262C215.273 88.1262 205.46 93.8802 205.46 106.416C205.46 118.968 215.461 124.089 223.613 124.637V124.671H223.784C226.718 124.671 229.532 125.836 231.607 127.911C233.681 129.986 234.847 132.8 234.847 135.734C234.847 138.668 233.681 141.482 231.607 143.556C229.532 145.631 226.718 146.796 223.784 146.796C222.437 146.796 221.204 146.774 220.085 146.728V146.796H89.9181L89.9352 146.762C76.9333 147.167 64.1647 143.245 53.6324 135.611C43.1001 127.977 35.3999 117.062 31.7397 104.579C28.0796 92.0967 28.6666 78.7522 33.4086 66.6392C38.1507 54.5261 46.7795 44.3298 57.9415 37.6498C69.1035 30.9697 82.1672 28.1839 95.0832 29.7292C107.999 31.2745 120.037 37.0635 129.308 46.1882C138.579 55.3129 144.559 67.257 146.31 80.1469C148.06 93.0367 145.483 106.143 138.981 117.41C134.049 126.195 134.357 132.292 140.488 137.224C151.208 142.584 161.295 136.795 163.556 133.456C173.418 117.053 177.668 97.883 175.663 78.8483C173.658 59.8137 165.507 41.9502 152.444 27.9615C139.381 13.9728 122.116 4.62038 103.263 1.31965C84.4094 -1.98109 64.9941 0.94957 47.9552 9.66806C30.9162 18.3866 17.1812 32.4183 8.82872 49.6396C0.476291 66.8609 -2.03885 86.3344 1.66397 105.113C5.36679 123.891 15.086 140.952 29.3506 153.714C43.6152 166.475 61.6488 174.243 80.7219 175.84V176.132Z" fill="black"/>
</svg>
