<svg width="227" height="227" viewBox="0 0 227 227" fill="none" xmlns="http://www.w3.org/2000/svg">
<path d="M102.859 31.9219V17.7344C102.859 14.9123 103.98 12.2058 105.976 10.2103C107.971 8.21481 110.678 7.09375 113.5 7.09375C116.322 7.09375 119.029 8.21481 121.024 10.2103C123.02 12.2058 124.141 14.9123 124.141 17.7344V31.9219C124.141 34.7439 123.02 37.4504 121.024 39.4459C119.029 41.4414 116.322 42.5625 113.5 42.5625C110.678 42.5625 107.971 41.4414 105.976 39.4459C103.98 37.4504 102.859 34.7439 102.859 31.9219ZM173.797 113.5C173.797 125.426 170.261 137.083 163.635 146.999C157.01 156.915 147.592 164.643 136.575 169.207C125.557 173.771 113.433 174.965 101.737 172.638C90.0402 170.312 79.2963 164.569 70.8637 156.136C62.431 147.704 56.6883 136.96 54.3617 125.263C52.0351 113.567 53.2292 101.443 57.793 90.4254C62.3567 79.4076 70.0851 69.9905 80.0008 63.365C89.9166 56.7395 101.574 53.2031 113.5 53.2031C129.487 53.2196 144.814 59.5775 156.118 70.8818C167.422 82.1861 173.78 97.5133 173.797 113.5ZM152.516 113.5C152.516 105.783 150.227 98.2402 145.94 91.8241C141.653 85.408 135.56 80.4073 128.431 77.4543C121.301 74.5013 113.457 73.7286 105.888 75.2341C98.3201 76.7395 91.3682 80.4554 85.9118 85.9118C80.4554 91.3682 76.7395 98.3201 75.2341 105.888C73.7286 113.457 74.5013 121.301 77.4543 128.431C80.4073 135.56 85.408 141.653 91.8241 145.94C98.2402 150.227 105.783 152.516 113.5 152.516C123.844 152.504 133.761 148.39 141.075 141.075C148.39 133.761 152.504 123.844 152.516 113.5ZM45.6749 60.7314C46.6647 61.7212 47.8397 62.5063 49.1329 63.042C50.4262 63.5776 51.8122 63.8533 53.212 63.8533C54.6118 63.8533 55.9978 63.5776 57.291 63.042C58.5843 62.5063 59.7593 61.7212 60.7491 60.7314C61.7389 59.7416 62.524 58.5665 63.0597 57.2733C63.5954 55.9801 63.8711 54.594 63.8711 53.1943C63.8711 51.7945 63.5954 50.4084 63.0597 49.1152C62.524 47.822 61.7389 46.6469 60.7491 45.6571L50.1085 35.0165C48.1095 33.0176 45.3983 31.8946 42.5714 31.8946C39.7444 31.8946 37.0332 33.0176 35.0343 35.0165C33.0353 37.0155 31.9123 39.7267 31.9123 42.5536C31.9123 45.3806 33.0353 48.0918 35.0343 50.0907L45.6749 60.7314ZM45.6749 166.251L35.0343 176.892C34.0445 177.881 33.2593 179.056 32.7237 180.35C32.188 181.643 31.9123 183.029 31.9123 184.429C31.9123 185.828 32.188 187.214 32.7237 188.508C33.2593 189.801 34.0445 190.976 35.0343 191.966C37.0332 193.965 39.7444 195.088 42.5714 195.088C43.9711 195.088 45.3572 194.812 46.6504 194.276C47.9436 193.741 49.1187 192.956 50.1085 191.966L60.7491 181.325C62.7481 179.326 63.8711 176.615 63.8711 173.788C63.8711 170.961 62.7481 168.25 60.7491 166.251C58.7501 164.252 56.039 163.129 53.212 163.129C50.385 163.129 47.6738 164.252 45.6749 166.251ZM173.797 63.8438C175.195 63.8448 176.579 63.5705 177.871 63.0365C179.162 62.5025 180.336 61.7192 181.325 60.7314L191.966 50.0907C192.956 49.101 193.741 47.9259 194.276 46.6327C194.812 45.3395 195.088 43.9534 195.088 42.5536C195.088 41.1539 194.812 39.7678 194.276 38.4746C193.741 37.1814 192.956 36.0063 191.966 35.0165C190.976 34.0267 189.801 33.2416 188.508 32.7059C187.214 32.1703 185.828 31.8946 184.429 31.8946C183.029 31.8946 181.643 32.1703 180.35 32.7059C179.056 33.2416 177.881 34.0267 176.892 35.0165L166.251 45.6571C164.754 47.1454 163.733 49.0453 163.319 51.1152C162.905 53.1851 163.116 55.3314 163.925 57.2811C164.734 59.2309 166.104 60.8959 167.862 62.0645C169.62 63.2332 171.686 63.8525 173.797 63.8438ZM181.325 166.269C179.326 164.27 176.615 163.147 173.788 163.147C170.961 163.147 168.25 164.27 166.251 166.269C164.252 168.268 163.129 170.979 163.129 173.806C163.129 176.633 164.252 179.344 166.251 181.343L176.892 191.983C178.89 193.982 181.602 195.105 184.429 195.105C187.256 195.105 189.967 193.982 191.966 191.983C193.965 189.985 195.088 187.273 195.088 184.446C195.088 181.619 193.965 178.908 191.966 176.909L181.325 166.269ZM42.5625 113.5C42.5625 110.678 41.4414 107.971 39.4459 105.976C37.4504 103.98 34.7439 102.859 31.9219 102.859H17.7344C14.9123 102.859 12.2058 103.98 10.2103 105.976C8.21481 107.971 7.09375 110.678 7.09375 113.5C7.09375 116.322 8.21481 119.029 10.2103 121.024C12.2058 123.02 14.9123 124.141 17.7344 124.141H31.9219C34.7439 124.141 37.4504 123.02 39.4459 121.024C41.4414 119.029 42.5625 116.322 42.5625 113.5ZM113.5 184.438C110.678 184.438 107.971 185.559 105.976 187.554C103.98 189.55 102.859 192.256 102.859 195.078V209.266C102.859 212.088 103.98 214.794 105.976 216.79C107.971 218.785 110.678 219.906 113.5 219.906C116.322 219.906 119.029 218.785 121.024 216.79C123.02 214.794 124.141 212.088 124.141 209.266V195.078C124.141 192.256 123.02 189.55 121.024 187.554C119.029 185.559 116.322 184.438 113.5 184.438ZM209.266 102.859H195.078C192.256 102.859 189.55 103.98 187.554 105.976C185.559 107.971 184.438 110.678 184.438 113.5C184.438 116.322 185.559 119.029 187.554 121.024C189.55 123.02 192.256 124.141 195.078 124.141H209.266C212.088 124.141 214.794 123.02 216.79 121.024C218.785 119.029 219.906 116.322 219.906 113.5C219.906 110.678 218.785 107.971 216.79 105.976C214.794 103.98 212.088 102.859 209.266 102.859Z" fill="black"/>
</svg>
