<svg width="278" height="302" viewBox="0 0 278 302" fill="none" xmlns="http://www.w3.org/2000/svg">
<path d="M116.529 0L148.688 46.9473C138.731 43.2409 127.832 41.1818 116.529 41.1818C105.226 41.1818 94.3262 43.2409 84.3688 46.9473L116.529 0ZM0 68.6364L55.9768 63.8318C47.6253 71.0282 40.528 79.6146 34.9855 89.2273C29.0649 99.3855 25.7009 109.818 23.817 120.663L0 68.6364ZM0.269119 205.909L23.9516 154.157C27.906 176.293 39.2158 196.363 55.9768 210.988L0.269119 205.909ZM232.923 68.6364L209.106 120.663C205.298 98.4338 193.964 78.273 177.08 63.6945L232.923 68.6364ZM278 164.727H251.088C251.088 192.868 240.592 221.009 219.601 242.424C209.614 252.643 197.742 260.743 184.67 266.256C171.598 271.77 157.585 274.587 143.44 274.545V302C177.888 302 212.335 288.273 238.574 261.779C264.813 235.285 278 199.869 278 164.727ZM224.176 164.727H197.264C197.264 178.455 192.016 192.868 181.521 203.575C171.025 214.283 156.896 219.636 143.44 219.636V247.091C154.048 247.109 164.554 244.991 174.358 240.858C184.161 236.725 193.068 230.659 200.569 223.007C208.069 215.356 214.016 206.269 218.067 196.268C222.118 186.267 224.194 175.549 224.176 164.727ZM116.529 96.0909C138.731 96.0909 156.896 114.623 156.896 137.273C156.896 159.923 138.731 178.455 116.529 178.455C94.3262 178.455 76.1607 159.923 76.1607 137.273C76.1607 114.623 94.3262 96.0909 116.529 96.0909ZM116.529 68.6364C79.3901 68.6364 49.2488 99.3855 49.2488 137.273C49.2488 175.16 79.3901 205.909 116.529 205.909C153.667 205.909 183.808 175.16 183.808 137.273C183.808 99.3855 153.667 68.6364 116.529 68.6364Z" fill="black"/>
</svg>
