<svg width="250" height="226" viewBox="0 0 250 226" fill="none" xmlns="http://www.w3.org/2000/svg">
<path d="M25 28.25C23.3424 28.25 21.7527 27.5886 20.5806 26.4113C19.4085 25.234 18.75 23.6372 18.75 21.9722C18.75 20.3073 19.4085 18.7105 20.5806 17.5332C21.7527 16.3559 23.3424 15.6944 25 15.6944C26.6576 15.6944 28.2473 16.3559 29.4194 17.5332C30.5915 18.7105 31.25 20.3073 31.25 21.9722C31.25 23.6372 30.5915 25.234 29.4194 26.4113C28.2473 27.5886 26.6576 28.25 25 28.25ZM25 43.9444C27.8727 43.9444 30.7172 43.3761 33.3712 42.2719C36.0252 41.1677 38.4367 39.5492 40.468 37.5089C42.4992 35.4686 44.1105 33.0464 45.2099 30.3806C46.3092 27.7148 46.875 24.8577 46.875 21.9722C46.875 19.0868 46.3092 16.2296 45.2099 13.5638C44.1105 10.898 42.4992 8.47583 40.468 6.43552C38.4367 4.39521 36.0252 2.77674 33.3712 1.67254C30.7172 0.568329 27.8727 -4.29963e-08 25 0C19.1984 8.6835e-08 13.6344 2.31493 9.53204 6.43552C5.42968 10.5561 3.125 16.1448 3.125 21.9722C3.125 27.7996 5.42968 33.3883 9.53204 37.5089C13.6344 41.6295 19.1984 43.9444 25 43.9444ZM118.744 3.13889C91.8625 3.13889 69.7875 24.5273 68.7563 51.4903C68.7002 53.5556 69.4573 55.5597 70.8632 57.0678C72.2692 58.5759 74.2105 59.4662 76.2658 59.5455C78.3212 59.6248 80.3248 58.8868 81.8418 57.4916C83.3588 56.0963 84.2668 54.1565 84.3688 52.093C84.7111 43.1614 88.4823 34.7096 94.8917 28.5093C101.301 22.3089 109.851 18.8413 118.75 18.8333C127.753 19.005 136.33 22.7177 142.637 29.1736C148.944 35.6294 152.478 44.3131 152.479 53.358C152.48 62.403 148.948 71.0873 142.642 77.5443C136.336 84.0013 127.76 87.7156 118.756 87.8889H7.8125C5.7405 87.8889 3.75336 88.7156 2.28823 90.1873C0.8231 91.6589 0 93.6549 0 95.7361C0 97.8173 0.8231 99.8133 2.28823 101.285C3.75336 102.757 5.7405 103.583 7.8125 103.583H118.75C125.316 103.583 131.818 102.283 137.884 99.7592C143.95 97.2349 149.462 93.5352 154.104 88.8714C158.747 84.2075 162.43 78.6708 164.942 72.5774C167.454 66.484 168.747 59.9532 168.747 53.358C168.746 46.7627 167.453 40.2321 164.94 34.139C162.427 28.0459 158.743 22.5097 154.1 17.8464C149.457 13.1831 143.945 9.48415 137.878 6.96063C131.812 4.4371 125.31 3.13848 118.744 3.13889ZM212.419 75.3333C204.016 75.3312 195.852 78.1477 189.224 83.336C182.596 88.5243 177.882 95.7873 175.831 103.973L175.231 106.39C174.729 108.409 175.046 110.546 176.113 112.331C177.179 114.116 178.908 115.402 180.919 115.907C182.929 116.411 185.057 116.093 186.834 115.021C188.611 113.95 189.892 112.213 190.394 110.194L190.994 107.783C192.199 102.993 194.96 98.7444 198.841 95.7093C202.722 92.6743 207.5 91.0268 212.419 91.0278C218.229 91.0228 223.805 93.3335 227.921 97.4528C232.037 101.572 234.358 107.164 234.375 113C234.375 118.827 232.07 124.416 227.968 128.537C223.866 132.657 218.302 134.972 212.5 134.972H7.8125C5.7405 134.972 3.75336 135.799 2.28823 137.271C0.8231 138.742 0 140.738 0 142.819C0 144.901 0.8231 146.897 2.28823 148.368C3.75336 149.84 5.7405 150.667 7.8125 150.667H162.5C172.762 150.667 181.25 159.255 181.25 169.751C181.25 179.971 172.981 188.333 162.987 188.333C159.596 188.334 156.272 187.386 153.387 185.595C150.503 183.805 148.172 181.242 146.656 178.195L146.05 176.977C145.596 176.047 144.963 175.216 144.188 174.533C143.413 173.85 142.512 173.328 141.535 172.997C140.558 172.665 139.525 172.531 138.497 172.603C137.468 172.674 136.464 172.949 135.541 173.413C134.619 173.876 133.797 174.518 133.123 175.301C132.449 176.085 131.936 176.995 131.614 177.979C131.292 178.963 131.167 180.001 131.246 181.033C131.325 182.066 131.607 183.073 132.075 183.995L132.681 185.213C135.495 190.868 139.821 195.624 145.176 198.947C150.53 202.271 156.7 204.03 162.994 204.028C181.8 204.028 196.875 188.453 196.875 169.751C196.876 162.97 194.904 156.336 191.2 150.667H212.5C222.446 150.667 231.984 146.698 239.017 139.634C246.049 132.57 250 122.99 250 113C250 92.1703 233.1 75.3333 212.419 75.3333ZM93.75 204.028C93.75 202.363 93.0915 200.766 91.9194 199.589C90.7473 198.411 89.1576 197.75 87.5 197.75C85.8424 197.75 84.2527 198.411 83.0806 199.589C81.9085 200.766 81.25 202.363 81.25 204.028C81.25 205.693 81.9085 207.29 83.0806 208.467C84.2527 209.644 85.8424 210.306 87.5 210.306C89.1576 210.306 90.7473 209.644 91.9194 208.467C93.0915 207.29 93.75 205.693 93.75 204.028ZM109.375 204.028C109.375 209.855 107.07 215.444 102.968 219.564C98.8656 223.685 93.3016 226 87.5 226C81.6984 226 76.1344 223.685 72.032 219.564C67.9297 215.444 65.625 209.855 65.625 204.028C65.625 198.2 67.9297 192.612 72.032 188.491C76.1344 184.37 81.6984 182.056 87.5 182.056C93.3016 182.056 98.8656 184.37 102.968 188.491C107.07 192.612 109.375 198.2 109.375 204.028ZM225 34.5278C225 32.8628 224.342 31.266 223.169 30.0887C221.997 28.9114 220.408 28.25 218.75 28.25C217.092 28.25 215.503 28.9114 214.331 30.0887C213.158 31.266 212.5 32.8628 212.5 34.5278C212.5 36.1927 213.158 37.7895 214.331 38.9668C215.503 40.1441 217.092 40.8056 218.75 40.8056C220.408 40.8056 221.997 40.1441 223.169 38.9668C224.342 37.7895 225 36.1927 225 34.5278ZM240.625 34.5278C240.625 40.3552 238.32 45.9439 234.218 50.0645C230.116 54.1851 224.552 56.5 218.75 56.5C212.948 56.5 207.384 54.1851 203.282 50.0645C199.18 45.9439 196.875 40.3552 196.875 34.5278C196.875 28.7004 199.18 23.1117 203.282 18.9911C207.384 14.8705 212.948 12.5556 218.75 12.5556C224.552 12.5556 230.116 14.8705 234.218 18.9911C238.32 23.1117 240.625 28.7004 240.625 34.5278Z" fill="black"/>
</svg>
